# xmcd
#
# Track frame offsets:
#	150
#	20795
#	37691
#	67472
#	87011
#	104602
#	116808
#	139179
#	141714
#	161294
#	196703
#	216389
#	234221
#	266508
#	277446
#
# Disc length: 4154 seconds
#
# Revision: 0
# Processed by: cddbd v1.5.2PL0 Copyright (c) Steve Scherf et al.
# Submitted via: EZCDAudioConverter 2.1.7.1
#
DISCID=e910380f
DTITLE=King Crimson - AzteK THRAK 2/2
DYEAR=1900
DGENRE=
TTITLE0=Waiting Man
TTITLE1=Neurotica
TTITLE2=The Sheltering Sky
TTITLE3=Three Of A Perfect Pair
TTITLE4=VROOOM
TTITLE5=Coda: Marine 475
TTITLE6=Sex Sleep Eat Drink Dream
TTITLE7=Improv: Two Sticks
TTITLE8=Elephant Talk
TTITLE9=Indiscipline
TTITLE10=Prism
TTITLE11=The Talking Drum
TTITLE12=Larks' Tongues In Aspic: Part Two
TTITLE13=Improv: Biker Babes Of The Rio Grande
TTITLE14=21st Century Schizoid Man
EXTD=
EXTT0=
EXTT1=
EXTT2=
EXTT3=
EXTT4=
EXTT5=
EXTT6=
EXTT7=
EXTT8=
EXTT9=
EXTT10=
EXTT11=
EXTT12=
EXTT13=
EXTT14=
PLAYORDER=
